# xmcd CD database file
#
# Track frame offsets:
#	150
#	16033
#	30095
#	42125
#	57822
#	71630
#	86741
#	103562
#	116792
#	129312
#	144024
#	157505
#	173188
#	188643
#
# Disc length: 2776 seconds
#
# Revision: 2
# Processed by: cddbd v1.5.2PL0 Copyright (c) Steve Scherf et al.
# Submitted via: CDex 1.51
#
DISCID=9d0ad60e
DTITLE=America - America Live
DYEAR=1977
DGENRE=Rock
TTITLE0=Tin Man
TTITLE1=Muskrat Love
TTITLE2=I Need You
TTITLE3=Old Man Took
TTITLE4=Daisy Jane
TTITLE5=Company
TTITLE6=Hollywood
TTITLE7=Sergeant Darkness
TTITLE8=Amber Cascades
TTITLE9=To Each His Own
TTITLE10=Another Try
TTITLE11=Ventura Highway
TTITLE12=Sister Golden Hair
TTITLE13=A Horse With No Name
EXTD=YEAR: 1977
EXTT0=
EXTT1=
EXTT2=
EXTT3=
EXTT4=
EXTT5=
EXTT6=
EXTT7=
EXTT8=
EXTT9=
EXTT10=
EXTT11=
EXTT12=
EXTT13=
PLAYORDER=
